<?xml version="1.0" encoding="UTF-8" standalone="no"?>
<!DOCTYPE svg PUBLIC "-//W3C//DTD SVG 1.1//EN"
 "http://www.w3.org/Graphics/SVG/1.1/DTD/svg11.dtd">
<!-- Generated by graphviz version 2.38.0 (20140413.2041)
 -->
<!-- Title: G Pages: 1 -->
<svg width="1224pt" height="338pt"
 viewBox="0.00 0.00 1223.69 338.00" xmlns="http://www.w3.org/2000/svg" xmlns:xlink="http://www.w3.org/1999/xlink">
<g id="graph0" class="graph" transform="scale(1 1) rotate(0) translate(4 334)">
<title>G</title>
<polygon fill="white" stroke="none" points="-4,4 -4,-334 1219.69,-334 1219.69,4 -4,4"/>
<!-- n -->
<g id="node1" class="node"><title>n</title>
<polygon fill="lightblue" stroke="none" points="509.47,-330 275.522,-330 275.522,-294 509.47,-294 509.47,-330"/>
<text text-anchor="middle" x="392.496" y="-314.8" font-family="Times,serif" font-size="14.00">are(writing(a(parser)))(and(joseph)(alex))</text>
<text text-anchor="middle" x="392.496" y="-300.8" font-family="Times,serif" font-size="14.00">S [prob = 0.116236165]</text>
</g>
<!-- n1 -->
<g id="node2" class="node"><title>n1</title>
<polygon fill="lightblue" stroke="none" points="296.488,-186 166.504,-186 166.504,-150 296.488,-150 296.488,-186"/>
<text text-anchor="middle" x="231.496" y="-170.8" font-family="Times,serif" font-size="14.00">and(joseph)(alex)</text>
<text text-anchor="middle" x="231.496" y="-156.8" font-family="Times,serif" font-size="14.00">N [prob = 0.80667573]</text>
</g>
<!-- n&#45;&gt;n1 -->
<g id="edge1" class="edge"><title>n&#45;&gt;n1</title>
<path fill="none" stroke="black" d="M373.076,-293.871C344.548,-268.711 291.195,-221.654 258.754,-193.042"/>
<polygon fill="black" stroke="black" points="260.8,-190.179 250.985,-186.189 256.17,-195.429 260.8,-190.179"/>
</g>
<!-- n2 -->
<g id="node3" class="node"><title>n2</title>
<polygon fill="lightblue" stroke="none" points="591.702,-258 413.29,-258 413.29,-222 591.702,-222 591.702,-258"/>
<text text-anchor="middle" x="502.496" y="-242.8" font-family="Times,serif" font-size="14.00">are(writing(a(parser)))</text>
<text text-anchor="middle" x="502.496" y="-228.8" font-family="Times,serif" font-size="14.00">(S[dcl]\NP) [prob = 0.1440928]</text>
</g>
<!-- n&#45;&gt;n2 -->
<g id="edge2" class="edge"><title>n&#45;&gt;n2</title>
<path fill="none" stroke="black" d="M419.405,-293.876C433.654,-284.808 451.342,-273.552 466.732,-263.759"/>
<polygon fill="black" stroke="black" points="468.926,-266.511 475.484,-258.19 465.168,-260.606 468.926,-266.511"/>
</g>
<!-- n11 -->
<g id="node4" class="node"><title>n11</title>
<polygon fill="lightblue" stroke="none" points="80.9883,-42 0.00390587,-42 0.00390587,-0 80.9883,-0 80.9883,-42"/>
<text text-anchor="middle" x="40.4961" y="-30.8" font-family="Times,serif" font-size="14.00">N [prob = 0.9]</text>
<text text-anchor="middle" x="40.4961" y="-16.8" font-family="Times,serif" font-size="14.00">alex</text>
<text text-anchor="middle" x="40.4961" y="-2.8" font-family="Times,serif" font-size="14.00">alex</text>
</g>
<!-- n1&#45;&gt;n11 -->
<g id="edge3" class="edge"><title>n1&#45;&gt;n11</title>
<path fill="none" stroke="black" d="M203.195,-149.949C187.113,-139.955 166.797,-126.811 149.496,-114 121.669,-93.3936 91.7219,-67.8506 70.2721,-48.9115"/>
<polygon fill="black" stroke="black" points="72.5755,-46.2761 62.7737,-42.2541 67.928,-51.5107 72.5755,-46.2761"/>
</g>
<!-- n12 -->
<g id="node5" class="node"><title>n12</title>
<polygon fill="lightblue" stroke="none" points="304.813,-114 158.179,-114 158.179,-78 304.813,-78 304.813,-114"/>
<text text-anchor="middle" x="231.496" y="-98.8" font-family="Times,serif" font-size="14.00">and(joseph)</text>
<text text-anchor="middle" x="231.496" y="-84.8" font-family="Times,serif" font-size="14.00">(N\N) [prob = 0.8963064]</text>
</g>
<!-- n1&#45;&gt;n12 -->
<g id="edge4" class="edge"><title>n1&#45;&gt;n12</title>
<path fill="none" stroke="black" d="M231.496,-149.697C231.496,-141.983 231.496,-132.712 231.496,-124.112"/>
<polygon fill="black" stroke="black" points="234.996,-124.104 231.496,-114.104 227.996,-124.104 234.996,-124.104"/>
</g>
<!-- n21 -->
<g id="node9" class="node"><title>n21</title>
<polygon fill="lightblue" stroke="none" points="625.637,-42 379.355,-42 379.355,-0 625.637,-0 625.637,-42"/>
<text text-anchor="middle" x="502.496" y="-30.8" font-family="Times,serif" font-size="14.00">((S[dcl]\NP)/(S[ng]\NP)) [prob = 0.276222]</text>
<text text-anchor="middle" x="502.496" y="-16.8" font-family="Times,serif" font-size="14.00">are</text>
<text text-anchor="middle" x="502.496" y="-2.8" font-family="Times,serif" font-size="14.00">are</text>
</g>
<!-- n2&#45;&gt;n21 -->
<g id="edge7" class="edge"><title>n2&#45;&gt;n21</title>
<path fill="none" stroke="black" d="M502.496,-221.972C502.496,-185.266 502.496,-98.2767 502.496,-52.064"/>
<polygon fill="black" stroke="black" points="505.996,-52.0501 502.496,-42.0501 498.996,-52.0501 505.996,-52.0501"/>
</g>
<!-- n22 -->
<g id="node10" class="node"><title>n22</title>
<polygon fill="lightblue" stroke="none" points="834.599,-186 652.394,-186 652.394,-150 834.599,-150 834.599,-186"/>
<text text-anchor="middle" x="743.496" y="-170.8" font-family="Times,serif" font-size="14.00">writing(a(parser))</text>
<text text-anchor="middle" x="743.496" y="-156.8" font-family="Times,serif" font-size="14.00">(S[ng]\NP) [prob = 0.52165574]</text>
</g>
<!-- n2&#45;&gt;n22 -->
<g id="edge8" class="edge"><title>n2&#45;&gt;n22</title>
<path fill="none" stroke="black" d="M561.143,-221.966C595.402,-212.015 638.812,-199.406 674.682,-188.987"/>
<polygon fill="black" stroke="black" points="675.959,-192.261 684.586,-186.111 674.007,-185.539 675.959,-192.261"/>
</g>
<!-- n121 -->
<g id="node7" class="node"><title>n121</title>
<polygon fill="lightblue" stroke="none" points="261.637,-42 99.3551,-42 99.3551,-0 261.637,-0 261.637,-42"/>
<text text-anchor="middle" x="180.496" y="-30.8" font-family="Times,serif" font-size="14.00">((X\X)/X) [prob = 0.995896]</text>
<text text-anchor="middle" x="180.496" y="-16.8" font-family="Times,serif" font-size="14.00">and</text>
<text text-anchor="middle" x="180.496" y="-2.8" font-family="Times,serif" font-size="14.00">and</text>
</g>
<!-- n12&#45;&gt;n121 -->
<g id="edge5" class="edge"><title>n12&#45;&gt;n121</title>
<path fill="none" stroke="black" d="M219.41,-77.7C213.682,-69.5008 206.691,-59.4945 200.223,-50.2367"/>
<polygon fill="black" stroke="black" points="203.078,-48.2116 194.482,-42.0185 197.34,-52.2206 203.078,-48.2116"/>
</g>
<!-- n122 -->
<g id="node8" class="node"><title>n122</title>
<polygon fill="lightblue" stroke="none" points="360.988,-42 280.004,-42 280.004,-0 360.988,-0 360.988,-42"/>
<text text-anchor="middle" x="320.496" y="-30.8" font-family="Times,serif" font-size="14.00">N [prob = 0.9]</text>
<text text-anchor="middle" x="320.496" y="-16.8" font-family="Times,serif" font-size="14.00">joseph</text>
<text text-anchor="middle" x="320.496" y="-2.8" font-family="Times,serif" font-size="14.00">joseph</text>
</g>
<!-- n12&#45;&gt;n122 -->
<g id="edge6" class="edge"><title>n12&#45;&gt;n122</title>
<path fill="none" stroke="black" d="M252.588,-77.7C263.196,-68.9988 276.286,-58.2625 288.133,-48.5453"/>
<polygon fill="black" stroke="black" points="290.578,-51.0665 296.09,-42.0185 286.139,-45.6542 290.578,-51.0665"/>
</g>
<!-- tokens -->
<g id="node6" class="node"><title>tokens</title>
<ellipse fill="none" stroke="black" cx="1182.5" cy="-21" rx="33.3925" ry="18"/>
<text text-anchor="middle" x="1182.5" y="-16.8" font-family="Times,serif" font-size="14.00">tokens</text>
</g>
<!-- n221 -->
<g id="node11" class="node"><title>n221</title>
<polygon fill="lightblue" stroke="none" points="843.209,-42 643.783,-42 643.783,-0 843.209,-0 843.209,-42"/>
<text text-anchor="middle" x="743.496" y="-30.8" font-family="Times,serif" font-size="14.00">((S[ng]\NP)/NP) [prob = 0.636364]</text>
<text text-anchor="middle" x="743.496" y="-16.8" font-family="Times,serif" font-size="14.00">writing</text>
<text text-anchor="middle" x="743.496" y="-2.8" font-family="Times,serif" font-size="14.00">writing</text>
</g>
<!-- n22&#45;&gt;n221 -->
<g id="edge9" class="edge"><title>n22&#45;&gt;n221</title>
<path fill="none" stroke="black" d="M743.496,-149.797C743.496,-125.878 743.496,-82.1893 743.496,-52.6295"/>
<polygon fill="black" stroke="black" points="746.996,-52.441 743.496,-42.4411 739.996,-52.4411 746.996,-52.441"/>
</g>
<!-- n222 -->
<g id="node12" class="node"><title>n222</title>
<polygon fill="lightblue" stroke="none" points="1011.76,-114 881.23,-114 881.23,-78 1011.76,-78 1011.76,-114"/>
<text text-anchor="middle" x="946.496" y="-98.8" font-family="Times,serif" font-size="14.00">a(parser)</text>
<text text-anchor="middle" x="946.496" y="-84.8" font-family="Times,serif" font-size="14.00">NP [prob = 0.8197443]</text>
</g>
<!-- n22&#45;&gt;n222 -->
<g id="edge10" class="edge"><title>n22&#45;&gt;n222</title>
<path fill="none" stroke="black" d="M792.896,-149.966C821.383,-140.142 857.382,-127.729 887.368,-117.389"/>
<polygon fill="black" stroke="black" points="888.562,-120.68 896.875,-114.111 886.28,-114.062 888.562,-120.68"/>
</g>
<!-- n2221 -->
<g id="node13" class="node"><title>n2221</title>
<polygon fill="lightblue" stroke="none" points="1031.92,-42 861.069,-42 861.069,-0 1031.92,-0 1031.92,-42"/>
<text text-anchor="middle" x="946.496" y="-30.8" font-family="Times,serif" font-size="14.00">(NP[nb]/N) [prob = 0.910827]</text>
<text text-anchor="middle" x="946.496" y="-16.8" font-family="Times,serif" font-size="14.00">a</text>
<text text-anchor="middle" x="946.496" y="-2.8" font-family="Times,serif" font-size="14.00">a</text>
</g>
<!-- n222&#45;&gt;n2221 -->
<g id="edge11" class="edge"><title>n222&#45;&gt;n2221</title>
<path fill="none" stroke="black" d="M946.496,-77.7C946.496,-70.0864 946.496,-60.9147 946.496,-52.2311"/>
<polygon fill="black" stroke="black" points="949.996,-52.0184 946.496,-42.0185 942.996,-52.0185 949.996,-52.0184"/>
</g>
<!-- n2222 -->
<g id="node14" class="node"><title>n2222</title>
<polygon fill="lightblue" stroke="none" points="1130.99,-42 1050,-42 1050,-0 1130.99,-0 1130.99,-42"/>
<text text-anchor="middle" x="1090.5" y="-30.8" font-family="Times,serif" font-size="14.00">N [prob = 0.9]</text>
<text text-anchor="middle" x="1090.5" y="-16.8" font-family="Times,serif" font-size="14.00">parser</text>
<text text-anchor="middle" x="1090.5" y="-2.8" font-family="Times,serif" font-size="14.00">parser</text>
</g>
<!-- n222&#45;&gt;n2222 -->
<g id="edge12" class="edge"><title>n222&#45;&gt;n2222</title>
<path fill="none" stroke="black" d="M980.258,-77.8847C998.568,-68.6024 1021.53,-56.9636 1041.75,-46.714"/>
<polygon fill="black" stroke="black" points="1043.48,-49.7593 1050.82,-42.1159 1040.31,-43.5158 1043.48,-49.7593"/>
</g>
</g>
</svg>
